<svg width="40" height="40" viewBox="0 0 40 40" fill="white"  xmlns="http://www.w3.org/2000/svg">
<path d="M13.4597 28.797C14.728 28.7955 15.9439 28.2911 16.8407 27.3943C17.7375 26.4975 18.2419 25.2816 18.2434 24.0133V18.7727C18.0192 12.4429 8.9003 12.4418 8.67603 18.7727V24.0133C8.67749 25.2815 9.18195 26.4974 10.0787 27.3942C10.9755 28.291 12.1914 28.7955 13.4597 28.797ZM13.4597 15.3394C14.271 15.3414 15.0553 15.6308 15.6734 16.1563C16.2915 16.6817 16.7034 17.4092 16.836 18.2096H15.2914C15.1123 18.2096 14.9406 18.2807 14.814 18.4074C14.6874 18.534 14.6162 18.7057 14.6162 18.8848C14.6162 19.0639 14.6874 19.2356 14.814 19.3622C14.9406 19.4888 15.1123 19.56 15.2914 19.56H16.893V20.7178H15.2914C15.1123 20.7178 14.9406 20.789 14.814 20.9156C14.6874 21.0422 14.6162 21.2139 14.6162 21.393C14.6162 21.5721 14.6874 21.7438 14.814 21.8704C14.9406 21.9971 15.1123 22.0682 15.2914 22.0682H16.893V23.226H15.2914C15.1146 23.2294 14.9461 23.302 14.8222 23.4283C14.6983 23.5545 14.6289 23.7243 14.6289 23.9012C14.6289 24.0781 14.6983 24.2479 14.8222 24.3742C14.9461 24.5004 15.1146 24.573 15.2914 24.5764H16.836C16.698 25.3717 16.2836 26.0928 15.6659 26.6125C15.0482 27.1321 14.2669 27.4171 13.4596 27.4171C12.6524 27.4171 11.8711 27.1321 11.2534 26.6124C10.6358 26.0927 10.2214 25.3716 10.0833 24.5763L11.5765 24.5764C11.7534 24.573 11.9219 24.5004 12.0457 24.3741C12.1696 24.2479 12.239 24.0781 12.239 23.9012C12.239 23.7243 12.1696 23.5545 12.0457 23.4282C11.9218 23.302 11.7533 23.2293 11.5765 23.226H10.0264V22.0682H11.5765C11.7556 22.0682 11.9274 21.997 12.054 21.8704C12.1806 21.7438 12.2517 21.572 12.2517 21.393C12.2517 21.2139 12.1806 21.0422 12.054 20.9155C11.9274 20.7889 11.7556 20.7178 11.5765 20.7178H10.0264V19.5599H11.5765C11.7534 19.5566 11.9219 19.484 12.0458 19.3577C12.1696 19.2314 12.239 19.0616 12.239 18.8847C12.239 18.7078 12.1696 18.538 12.0457 18.4118C11.9218 18.2855 11.7534 18.2129 11.5765 18.2096H10.0833C10.2159 17.4092 10.6279 16.6817 11.246 16.1562C11.8641 15.6308 12.6484 15.3414 13.4597 15.3394Z" fill="white"/>
<path d="M19.6224 23.6714C19.5338 23.6714 19.4459 23.6889 19.364 23.7228C19.2821 23.7567 19.2077 23.8064 19.1449 23.8691C19.0822 23.9318 19.0325 24.0063 18.9986 24.0882C18.9647 24.1701 18.9472 24.2579 18.9472 24.3466C18.6698 31.6198 8.24621 31.6125 7.97245 24.3465C7.97244 24.1675 7.90129 23.9957 7.77466 23.8691C7.64803 23.7425 7.47629 23.6714 7.29722 23.6714C7.11815 23.6714 6.94642 23.7425 6.8198 23.8692C6.69319 23.9958 6.62206 24.1675 6.62207 24.3466C6.62414 26.0426 7.25557 27.6774 8.39406 28.9344C9.53254 30.1914 11.097 30.9812 12.7845 31.1507V33.1986H10.0953C9.91794 33.2012 9.74876 33.2735 9.62428 33.3998C9.49981 33.5262 9.43004 33.6964 9.43005 33.8738C9.43005 34.0511 9.49983 34.2214 9.62431 34.3477C9.74879 34.474 9.91797 34.5463 10.0953 34.549H16.8241C17.0009 34.5455 17.1693 34.4728 17.2931 34.3466C17.4169 34.2203 17.4862 34.0506 17.4862 33.8737C17.4862 33.6969 17.4169 33.5272 17.293 33.4009C17.1692 33.2747 17.0008 33.202 16.824 33.1986H14.1349V31.1507C15.8224 30.9813 17.387 30.1915 18.5255 28.9345C19.6641 27.6775 20.2955 26.0426 20.2976 24.3466C20.2976 24.2579 20.2802 24.1701 20.2463 24.0882C20.2124 24.0063 20.1626 23.9318 20.0999 23.8691C20.0372 23.8064 19.9628 23.7567 19.8808 23.7228C19.7989 23.6888 19.7111 23.6714 19.6224 23.6714Z" fill="white"/>
<path d="M30.4842 1H13.8989C13.0591 0.999969 12.2537 1.33304 11.6592 1.92613C11.0648 2.51923 10.7299 3.32391 10.728 4.16363V5.36037H9.53123C8.69151 5.36226 7.88683 5.69718 7.29374 6.29163C6.70064 6.88608 6.36757 7.69153 6.3676 8.53125V9.72734H4.85766C4.10001 9.72815 3.37362 10.0295 2.83788 10.5652C2.30214 11.101 2.00081 11.8274 2 12.585V35.9529C2.00081 36.7106 2.30214 37.4369 2.83788 37.9727C3.37362 38.5084 4.10001 38.8098 4.85766 38.8106H22.0618C22.8195 38.8098 23.5458 38.5084 24.0816 37.9727C24.6173 37.437 24.9187 36.7106 24.9195 35.9529V34.4423H26.1162C26.9559 34.4424 27.7613 34.1095 28.3559 33.5165C28.9504 32.9236 29.2854 32.119 29.2874 31.2793V30.0826H30.4842C31.3229 30.0816 32.127 29.748 32.72 29.1549C33.3131 28.5618 33.6466 27.7577 33.6475 26.919V4.16363C33.6466 3.32491 33.3131 2.52077 32.7201 1.92767C32.127 1.33457 31.3229 1.00094 30.4842 1ZM23.5691 35.9529C23.5687 36.3525 23.4098 36.7357 23.1272 37.0183C22.8446 37.3009 22.4614 37.4598 22.0618 37.4602H4.85766C4.45803 37.4598 4.07487 37.3009 3.79229 37.0183C3.50971 36.7357 3.35078 36.3525 3.35038 35.9529V12.585C3.35078 12.1854 3.50971 11.8022 3.7923 11.5196C4.07489 11.2371 4.45805 11.0781 4.85769 11.0777C4.85769 11.0777 22.0575 11.0819 22.0618 11.0777C22.4615 11.0781 22.8446 11.2371 23.1272 11.5197C23.4098 11.8022 23.5687 12.1854 23.5691 12.585L23.5691 35.9529ZM27.9371 31.2793C27.9354 31.761 27.7428 32.2223 27.4014 32.5621C27.0601 32.9019 26.5979 33.0925 26.1162 33.0919H24.9195V12.585C24.9187 11.8274 24.6173 11.101 24.0816 10.5652C23.5458 10.0295 22.8195 9.72815 22.0618 9.72734H7.71798V8.53126C7.71759 8.04957 7.90828 7.58739 8.2482 7.2461C8.58813 6.90481 9.04954 6.71229 9.53123 6.71075H26.1162C26.5989 6.71132 27.0617 6.9033 27.403 7.24458C27.7443 7.58585 27.9364 8.04857 27.9371 8.53125V31.2793ZM32.2971 26.919C32.2966 27.3996 32.1054 27.8605 31.7655 28.2004C31.4257 28.5403 30.9649 28.7316 30.4842 28.7322H29.2874V8.53126C29.2865 7.69053 28.9521 6.8845 28.3575 6.29004C27.763 5.69558 26.957 5.36124 26.1162 5.36037H12.0784V4.16363C12.0799 3.68195 12.2724 3.22054 12.6137 2.88061C12.955 2.54069 13.4172 2.35 13.8989 2.35038H30.4842C30.9649 2.35102 31.4257 2.54228 31.7655 2.8822C32.1054 3.22213 32.2965 3.68296 32.2971 4.16363L32.2971 26.919Z" fill="white"/>
</svg>
